<svg width="25" height="24" viewBox="0 0 25 24" fill="none" xmlns="http://www.w3.org/2000/svg">
<path d="M12.2734 3C9.70167 3 7.60938 5.0923 7.60938 7.66406C7.60938 10.2358 9.70167 12.3281 12.2734 12.3281C14.8452 12.3281 16.9375 10.2358 16.9375 7.66406C16.9375 5.0923 14.8452 3 12.2734 3Z" fill="white"/>
<path d="M18.0764 15.3753C16.7995 14.0788 15.1067 13.3647 13.3099 13.3647H11.237C9.44017 13.3647 7.74736 14.0788 6.47045 15.3753C5.19978 16.6655 4.5 18.3685 4.5 20.1708C4.5 20.457 4.73203 20.6891 5.01823 20.6891H19.5286C19.8148 20.6891 20.0469 20.457 20.0469 20.1708C20.0469 18.3685 19.3471 16.6655 18.0764 15.3753Z" fill="white"/>
</svg>
