<svg width="24" height="24" viewBox="0 0 24 24" fill="none" xmlns="http://www.w3.org/2000/svg">
<path d="M11.8 6C10.2536 6 9 7.2536 9 8.8C9 10.3464 10.2536 11.6 11.8 11.6C13.3457 11.5982 14.5983 10.3457 14.6 8.8C14.6 7.2536 13.3464 6 11.8 6ZM11.8 10.8C10.6955 10.8 9.8 9.90455 9.8 8.8C9.8 7.69545 10.6955 6.8 11.8 6.8C12.904 6.8013 13.7987 7.696 13.8 8.8C13.8 9.90455 12.9046 10.8 11.8 10.8Z" fill="#000046"/>
<path d="M12 3C8.68627 3 6 5.68628 6 9C6 12.2022 11.5155 20.514 11.7504 20.8665C11.806 20.9499 11.8997 21 12 21C12.1003 21 12.1939 20.9499 12.2496 20.8665C12.4845 20.514 18 12.2022 18 9C18 5.68628 15.3137 3 12 3ZM12 20.1519C10.9065 18.4653 6.6 11.652 6.6 9C6.60349 6.01909 9.01909 3.60349 12 3.6C14.9809 3.60349 17.3965 6.01909 17.4 9C17.4 11.6514 13.0935 18.4653 12 20.1519Z" fill="#000046"/>
</svg>
