<svg width="48" height="48" viewBox="0 0 48 48" fill="none" xmlns="http://www.w3.org/2000/svg">
<rect width="48" height="48" rx="8" fill="#F4F6FC"/>
<path fill-rule="evenodd" clip-rule="evenodd" d="M19.3078 34C19.5875 32.9163 20.5725 32.1143 21.7429 32.1143C22.9133 32.1143 23.8982 32.9163 24.1779 34H37.7714C37.8594 34 37.9462 34.0182 38.0266 34.054C38.1014 34.0873 38.1699 34.1357 38.2265 34.1948C38.2806 34.2514 38.3239 34.3187 38.3535 34.3909C38.3805 34.4576 38.3962 34.5286 38.3993 34.6002C38.4025 34.6688 38.3943 34.7379 38.3748 34.8045C38.3579 34.863 38.3321 34.9189 38.2988 34.9705C38.2259 35.083 38.1165 35.1704 37.9908 35.2175C37.9223 35.2433 37.8487 35.2565 37.7752 35.2571H37.7714H24.1779C23.8982 36.3408 22.9133 37.1428 21.7429 37.1428C20.5725 37.1428 19.5875 36.3408 19.3078 35.2571H12.6286C12.555 35.2571 12.4815 35.2445 12.4124 35.2188C12.2854 35.1722 12.1748 35.0843 12.1012 34.9705C12.0679 34.9189 12.0421 34.863 12.0252 34.8045C12.0057 34.7379 11.9975 34.6688 12.0007 34.6002C12.0038 34.5286 12.0195 34.4576 12.0465 34.3909C12.0761 34.3187 12.1195 34.2514 12.1735 34.1948C12.2301 34.1357 12.2986 34.0873 12.3734 34.054C12.4538 34.0182 12.5406 34 12.6286 34H19.3078ZM21.7429 33.3714C22.4368 33.3714 23 33.9346 23 34.6285C23 35.3225 22.4368 35.8857 21.7429 35.8857C21.0489 35.8857 20.4857 35.3225 20.4857 34.6285C20.4857 33.9346 21.0489 33.3714 21.7429 33.3714ZM29.3649 23.9428C29.6446 22.8592 30.6296 22.0571 31.8 22.0571C32.9704 22.0571 33.9554 22.8592 34.2351 23.9428H37.7714C37.8594 23.9428 37.9462 23.9611 38.0266 23.9969C38.1014 24.0302 38.1699 24.0786 38.2265 24.1377C38.2806 24.1943 38.3239 24.2615 38.3535 24.3338C38.3805 24.4004 38.3962 24.4715 38.3993 24.5431C38.4025 24.6116 38.3943 24.6808 38.3748 24.7474C38.3579 24.8059 38.3321 24.8618 38.2988 24.9134C38.2259 25.0259 38.1165 25.1132 37.9908 25.1604C37.9223 25.1862 37.8487 25.1993 37.7752 25.2H37.7714H34.2351C33.9554 26.2836 32.9704 27.0857 31.8 27.0857C30.6296 27.0857 29.6446 26.2836 29.3649 25.2H12.6286C12.5406 25.2 12.4538 25.1818 12.3734 25.1459C12.2986 25.1126 12.2301 25.0642 12.1735 25.0051C12.1195 24.9486 12.0761 24.8813 12.0465 24.809C12.0195 24.7424 12.0038 24.6714 12.0007 24.5997C11.9975 24.5312 12.0057 24.462 12.0252 24.3954C12.0421 24.337 12.0679 24.281 12.1012 24.2295C12.1748 24.1157 12.2854 24.0277 12.4124 23.9812C12.4815 23.9554 12.555 23.9428 12.6286 23.9428H29.3649ZM31.8 23.3143C32.4939 23.3143 33.0571 23.8775 33.0571 24.5714C33.0571 25.2653 32.4939 25.8285 31.8 25.8285C31.106 25.8285 30.5428 25.2653 30.5428 24.5714C30.5428 23.8775 31.106 23.3143 31.8 23.3143ZM15.2221 13.8857C15.5018 12.8021 16.4868 12 17.6572 12C18.8276 12 19.8125 12.8021 20.0922 13.8857H37.7714C37.8594 13.8857 37.9462 13.9039 38.0266 13.9398C38.1014 13.9731 38.1699 14.0215 38.2265 14.0806C38.2806 14.1371 38.3239 14.2044 38.3535 14.2767C38.3805 14.3433 38.3962 14.4143 38.3993 14.486C38.4025 14.5545 38.3943 14.6237 38.3748 14.6903C38.3579 14.7487 38.3321 14.8047 38.2988 14.8562C38.2259 14.9687 38.1165 15.0561 37.9908 15.1032C37.9223 15.129 37.8487 15.1422 37.7752 15.1429H37.7714H20.0922C19.8125 16.2265 18.8276 17.0286 17.6572 17.0286C16.4868 17.0286 15.5018 16.2265 15.2221 15.1429H12.6286C12.555 15.1429 12.4815 15.1303 12.4124 15.1045C12.2854 15.058 12.1748 14.97 12.1012 14.8562C12.0679 14.8047 12.0421 14.7487 12.0252 14.6903C12.0057 14.6237 11.9975 14.5545 12.0007 14.486C12.0038 14.4143 12.0195 14.3433 12.0465 14.2767C12.0761 14.2044 12.1195 14.1371 12.1735 14.0806C12.2301 14.0215 12.2986 13.9731 12.3734 13.9398C12.4538 13.9039 12.5406 13.8857 12.6286 13.8857H15.2221ZM17.6572 13.2571C18.3511 13.2571 18.9143 13.8203 18.9143 14.5143C18.9143 15.2082 18.3511 15.7714 17.6572 15.7714C16.9632 15.7714 16.4 15.2082 16.4 14.5143C16.4 13.8203 16.9632 13.2571 17.6572 13.2571Z" fill="#000046"/>
</svg>
