<svg width="24" height="25" viewBox="0 0 24 25" fill="none" xmlns="http://www.w3.org/2000/svg">
<path d="M20.9459 8.78937C20.9021 7.83136 20.7499 7.17712 20.5275 6.60474C20.3015 6.0042 19.9472 5.46024 19.4894 5.01062C19.0399 4.55276 18.4958 4.19832 17.8953 3.97227C17.3227 3.74994 16.6686 3.59792 15.7106 3.55438C14.7508 3.51044 14.4442 3.5 12 3.5C9.55582 3.5 9.24916 3.51044 8.28937 3.55411C7.33136 3.59792 6.67726 3.75008 6.10474 3.97255C5.5042 4.19846 4.96024 4.55276 4.51062 5.01062C4.05276 5.4601 3.69832 6.00406 3.47227 6.6046C3.24994 7.17712 3.09792 7.83136 3.05438 8.78923C3.01044 9.74916 3 10.0557 3 12.4999C3 14.9442 3.01044 15.2508 3.05438 16.2106C3.09805 17.1685 3.25021 17.8227 3.47269 18.3953C3.69859 18.9957 4.0529 19.5398 4.51076 19.9892C4.96024 20.4471 5.50433 20.8014 6.10487 21.0273C6.67726 21.2499 7.3315 21.4019 8.28951 21.4458C9.24944 21.4896 9.55595 21.4999 12.0001 21.4999C14.4443 21.4999 14.751 21.4896 15.7108 21.4458C16.6688 21.4019 17.3229 21.2499 17.8954 21.0273C19.1043 20.5598 20.06 19.6042 20.5275 18.3953C20.7501 17.8227 20.9021 17.1685 20.9459 16.2106C20.9896 15.2507 21 14.9442 21 12.5C21 10.0557 20.9896 9.74916 20.9459 8.78937ZM19.3258 16.1369C19.2859 17.0144 19.1392 17.491 19.016 17.808C18.7132 18.593 18.0929 19.2133 17.3079 19.5161C16.9908 19.6393 16.5143 19.786 15.6367 19.826C14.6879 19.8694 14.4033 19.8784 12 19.8784C9.5966 19.8784 9.31206 19.8694 8.36311 19.826C7.48572 19.786 7.00919 19.6393 6.69196 19.5161C6.30112 19.3718 5.94749 19.1418 5.65718 18.8428C5.35822 18.5525 5.12819 18.199 4.98386 17.808C4.86067 17.491 4.714 17.0144 4.67404 16.1369C4.63078 15.1879 4.62158 14.9033 4.62158 12.5001C4.62158 10.0969 4.63078 9.81233 4.67404 8.86325C4.71414 7.98572 4.86067 7.50919 4.98386 7.19209C5.12819 6.80112 5.35835 6.44749 5.65718 6.15718C5.94749 5.85822 6.30112 5.62819 6.69209 5.48399C7.00919 5.36067 7.48572 5.21414 8.36325 5.17404C9.31219 5.13078 9.59688 5.12158 12 5.12158H11.9999C14.403 5.12158 14.6877 5.13078 15.6367 5.17418C16.5143 5.21414 16.9907 5.36081 17.3079 5.48399C17.6987 5.62833 18.0524 5.85835 18.3427 6.15718C18.6416 6.44749 18.8717 6.80112 19.0159 7.19209C19.1392 7.50919 19.2859 7.98572 19.3258 8.86325C19.3691 9.81219 19.3783 10.0969 19.3783 12.5C19.3783 14.9033 19.3692 15.1878 19.3258 16.1369Z" fill="white"/>
<path d="M11.9995 7.87793C9.44707 7.87793 7.37793 9.9472 7.37793 12.4996C7.37793 15.052 9.44707 17.1211 11.9995 17.1211C14.552 17.1211 16.6211 15.052 16.6211 12.4996C16.6211 9.9472 14.552 7.87793 11.9995 7.87793ZM11.9995 15.4996C10.3427 15.4994 8.99951 14.1563 8.99965 12.4995C8.99965 10.8427 10.3427 9.49951 11.9996 9.49951C13.6565 9.49965 14.9996 10.8427 14.9996 12.4995C14.9996 14.1563 13.6563 15.4996 11.9995 15.4996Z" fill="white"/>
<path d="M17.8827 7.69533C17.8827 8.29175 17.3992 8.77528 16.8027 8.77528C16.2062 8.77528 15.7227 8.29175 15.7227 7.69533C15.7227 7.09877 16.2062 6.61523 16.8027 6.61523C17.3992 6.61523 17.8827 7.09877 17.8827 7.69533Z" fill="white"/>
</svg>
