<svg width="24" height="24" viewBox="0 0 24 24" fill="none" xmlns="http://www.w3.org/2000/svg">
<path d="M11.6669 6.68311C10.5716 6.68311 9.68359 7.57107 9.68359 8.66644C9.68359 9.76181 10.5716 10.6498 11.6669 10.6498C12.7618 10.6485 13.649 9.76127 13.6503 8.66644C13.6503 7.57107 12.7623 6.68311 11.6669 6.68311ZM11.6669 10.0831C10.8845 10.0831 10.2503 9.44883 10.2503 8.66644C10.2503 7.88405 10.8845 7.24977 11.6669 7.24977C12.4489 7.25069 13.0827 7.88444 13.0836 8.66644C13.0836 9.44883 12.4493 10.0831 11.6669 10.0831Z" fill="white"/>
<path d="M11.6667 3C8.53704 3 6 5.53704 6 8.66667C6 11.691 11.2091 19.541 11.4309 19.8739C11.4835 19.9527 11.572 20 11.6667 20C11.7614 20 11.8498 19.9527 11.9024 19.8739C12.1242 19.541 17.3333 11.691 17.3333 8.66667C17.3333 5.53704 14.7963 3 11.6667 3ZM11.6667 19.199C10.6339 17.6061 6.56667 11.1713 6.56667 8.66667C6.56996 5.85136 8.85136 3.56996 11.6667 3.56667C14.482 3.56996 16.7634 5.85136 16.7667 8.66667C16.7667 11.1708 12.6994 17.6061 11.6667 19.199Z" fill="white"/>
</svg>
