<svg width="24" height="25" viewBox="0 0 24 25" fill="none" xmlns="http://www.w3.org/2000/svg">
<path d="M21 6.39415C20.2934 6.71538 19.5406 6.92831 18.7556 7.03169C19.5631 6.532 20.1794 5.74677 20.4692 4.80031C19.7163 5.26554 18.8851 5.59415 17.9992 5.77754C17.2843 4.98862 16.2654 4.5 15.1539 4.5C12.9974 4.5 11.2613 6.31415 11.2613 8.53815C11.2613 8.85815 11.2874 9.16585 11.3516 9.45877C8.11325 9.29508 5.24781 7.68646 3.32287 5.236C2.98681 5.84031 2.78969 6.532 2.78969 7.27662C2.78969 8.67477 3.48438 9.91415 4.51988 10.6317C3.89406 10.6194 3.28013 10.4311 2.76 10.1345C2.76 10.1468 2.76 10.1628 2.76 10.1788C2.76 12.1406 4.11019 13.7702 5.88075 14.1455C5.56369 14.2354 5.21812 14.2785 4.8595 14.2785C4.61013 14.2785 4.35837 14.2637 4.12206 14.2095C4.62675 15.8083 6.05888 16.9837 7.76175 17.0218C6.4365 18.0963 4.75381 18.7437 2.93219 18.7437C2.61275 18.7437 2.30637 18.7289 2 18.6883C3.72544 19.8415 5.77031 20.5 7.9755 20.5C15.1432 20.5 19.062 14.3462 19.062 9.012C19.062 8.83354 19.0561 8.66123 19.0478 8.49015C19.8208 7.92154 20.4704 7.21138 21 6.39415Z" fill="white"/>
</svg>
