<svg width="24" height="25" viewBox="0 0 24 25" fill="none" xmlns="http://www.w3.org/2000/svg">
<path fill-rule="evenodd" clip-rule="evenodd" d="M18.035 6.8982C16.4907 5.35254 14.4368 4.50087 12.2486 4.5C7.73991 4.5 4.0704 8.16814 4.06859 12.6769C4.06799 14.1181 4.44465 15.525 5.16049 16.765L4 21.0025L8.33633 19.8654C9.53112 20.5168 10.8763 20.8602 12.2453 20.8607H12.2487C16.757 20.8607 20.4268 17.1921 20.4286 12.6834C20.4295 10.4984 19.5794 8.44386 18.035 6.8982ZM12.2487 19.4797H12.2459C11.0259 19.4792 9.82937 19.1515 8.78547 18.5323L8.53719 18.385L5.96395 19.0598L6.65079 16.5517L6.4891 16.2946C5.80853 15.2124 5.44908 13.9616 5.44962 12.6774C5.4511 8.92996 8.50108 5.8811 12.2513 5.8811C14.0673 5.8818 15.7743 6.58973 17.058 7.87441C18.3417 9.15909 19.0482 10.8668 19.0475 12.6829C19.046 16.4306 15.9961 19.4797 12.2487 19.4797Z" fill="white"/>
<path d="M12.2487 19.4797H12.2459C11.0259 19.4792 9.82937 19.1515 8.78547 18.5323L8.53719 18.385L5.96395 19.0598L6.65079 16.5517L6.4891 16.2946C5.80853 15.2124 5.44908 13.9616 5.44962 12.6774C5.4511 8.92996 8.50108 5.8811 12.2513 5.8811C14.0673 5.8818 15.7743 6.58973 17.058 7.87441C18.3417 9.15909 19.0482 10.8668 19.0475 12.6829C19.046 16.4306 15.9961 19.4797 12.2487 19.4797Z" fill="white"/>
<path fill-rule="evenodd" clip-rule="evenodd" d="M9.50473 16.6378C9.56229 16.6726 9.68056 16.6725 9.9518 16.6723C11.1029 16.6713 12.0971 16.6677 12.8043 16.6677C16.1048 16.6677 16.018 13.1932 14.4749 12.7597C14.7009 12.3593 15.7307 11.6071 15.0938 10.0523C14.464 8.5149 11.7555 8.86378 9.90317 8.86469C9.21778 8.86478 9.32026 9.37123 9.32378 10.1587C9.32941 11.4059 9.32479 14.7818 9.32396 16.2412C9.32378 16.537 9.41305 16.5825 9.50473 16.6378ZM10.9328 15.3645C11.2444 15.3645 11.9795 15.3645 12.6096 15.3635C13.3231 15.3624 13.9585 15.0287 13.9427 14.3183C13.931 13.6492 13.4858 13.4296 12.868 13.3683C12.2794 13.3739 11.6063 13.3739 10.9328 13.3739V15.3645H10.9328ZM10.9328 12.03C12.1742 12.013 12.6532 12.0801 13.331 11.9103C13.7967 11.6459 14.0001 10.6655 13.3336 10.3325C12.8705 10.1011 11.5021 10.1803 10.9328 10.204V12.03V12.03Z" fill="#000046"/>
</svg>
