<svg width="24" height="25" viewBox="0 0 24 25" fill="none" xmlns="http://www.w3.org/2000/svg">
<path d="M21.1055 7.75273C20.5925 6.84036 20.0359 6.67255 18.9025 6.60873C17.7704 6.53191 14.9234 6.5 12.4569 6.5C9.98573 6.5 7.13755 6.53191 6.00655 6.60755C4.87555 6.67255 4.31773 6.83918 3.80009 7.75273C3.27182 8.66391 3 10.2334 3 12.9965C3 12.9988 3 13 3 13C3 13.0024 3 13.0035 3 13.0035V13.0059C3 15.7572 3.27182 17.3385 3.80009 18.2402C4.31773 19.1525 4.87436 19.318 6.00536 19.3948C7.13755 19.461 9.98573 19.5 12.4569 19.5C14.9234 19.5 17.7704 19.461 18.9037 19.396C20.0371 19.3192 20.5937 19.1537 21.1066 18.2414C21.6396 17.3396 21.9091 15.7584 21.9091 13.0071C21.9091 13.0071 21.9091 13.0035 21.9091 13.0012C21.9091 13.0012 21.9091 12.9988 21.9091 12.9976C21.9091 10.2334 21.6396 8.66391 21.1055 7.75273Z" fill="white"/>
<path d="M10.0898 16.546V9.45508L15.9989 13.0005L10.0898 16.546Z" fill="#000046"/>
</svg>
