<svg width="24" height="24" viewBox="0 0 24 24" fill="none" xmlns="http://www.w3.org/2000/svg">
<path d="M18.926 18.5533L15.1098 14.7371C17.2757 12.3654 17.1088 8.68707 14.7371 6.52123C12.3654 4.35538 8.68707 4.52226 6.52123 6.89393C4.35538 9.26561 4.52226 12.944 6.89394 15.1098C9.11494 17.1381 12.5161 17.1381 14.7371 15.1098L18.5533 18.926C18.658 19.0271 18.8248 19.0242 18.926 18.9195C19.0247 18.8174 19.0247 18.6554 18.926 18.5533ZM10.8321 16.1038C7.92202 16.1005 5.56372 13.7422 5.56039 10.8321C5.56039 7.9206 7.9206 5.56039 10.8321 5.56039C13.7436 5.56039 16.1038 7.9206 16.1038 10.8321C16.1038 13.7436 13.7436 16.1038 10.8321 16.1038Z" fill="white"/>
</svg>
